<svg xmlns="http://www.w3.org/2000/svg" width="252" height="20" viewBox="0 0 252 20">
  <path fill="#FFF" fill-rule="evenodd" d="M225.893188,4.7258125 L225.893188,10.2276875 L227.547562,10.2276875 C228.930688,10.2276875 230.326,9.6133125 230.326,7.4526875 C230.311937,5.27175 228.996,4.7258125 227.547562,4.7258125 L225.893188,4.7258125 Z M231.135063,13.3320625 L233.987563,18.462375 L230.367875,18.462375 L228.090688,14.09925 L227.682562,13.368 L225.893188,13.368 L225.893188,18.462375 L222.585062,18.462375 L222.585062,1.56175 L227.955062,1.56175 C232.727563,1.56175 233.612562,5.5251875 233.612562,7.6745625 C233.612562,10.056125 232.421625,11.792375 230.70725,12.57925 C230.860375,12.8508125 231.01475,13.1233125 231.135063,13.3320625 Z M67.0238125,4.7258125 L67.0238125,10.2276875 L68.677875,10.2276875 C70.061,10.2276875 71.4563125,9.6133125 71.4563125,7.4526875 C71.44225,5.27175 70.1263125,4.7258125 68.677875,4.7258125 L67.0238125,4.7258125 Z M72.2656875,13.3320625 L75.1185,18.462375 L71.4985,18.462375 L69.221,14.09925 L68.812875,13.368 L67.0238125,13.368 L67.0238125,18.462375 L63.715375,18.462375 L63.715375,1.56175 L69.0856875,1.56175 C73.857875,1.56175 74.742875,5.5251875 74.742875,7.6745625 C74.742875,10.056125 73.5519375,11.792375 71.8375625,12.57925 C71.991,12.8508125 72.1450625,13.1233125 72.2656875,13.3320625 Z M138.8235,4.749875 L138.8235,18.462375 L135.515063,18.462375 L135.515063,4.749875 L131.991313,4.749875 L131.991313,1.56175 L142.34725,1.56175 L142.34725,4.749875 L138.8235,4.749875 Z M123.744438,4.749875 L123.744438,8.5858125 L128.323188,8.5858125 L128.323188,11.4620625 L123.744438,11.4620625 L123.744438,15.298 L129.929438,15.298 L129.929438,18.462375 L120.436313,18.462375 L120.436313,1.56175 L129.929438,1.56175 L129.929438,4.749875 L123.744438,4.749875 Z M113.86725,18.462375 L110.511,11.4383125 L109.264438,11.4383125 L109.264438,18.462375 L105.956313,18.462375 L105.956313,1.56175 L109.264438,1.56175 L109.264438,8.513625 L110.511,8.513625 L113.86725,1.56175 L117.582875,1.56175 L113.363813,9.9520625 L117.582875,18.462375 L113.86725,18.462375 Z M97.277875,4.41425 C96.12725,4.41425 94.9285,5.0376875 94.9285,6.97925 L94.9285,12.9726875 C94.9285,14.962375 96.12725,15.56175 97.277875,15.56175 C98.8119375,15.56175 99.651,14.8183125 99.651,12.34925 L99.651,12.133625 L102.959125,12.133625 C102.959125,16.448625 101.1135,18.7258125 97.277875,18.7258125 C93.921625,18.7258125 91.5963125,16.328625 91.5963125,12.8764375 L91.5963125,7.0751875 C91.5963125,3.647375 93.921625,1.249875 97.277875,1.249875 C101.041625,1.249875 102.959125,3.71925 102.959125,7.6508125 L99.651,7.6508125 L99.651,7.411125 C99.651,4.9176875 98.4285,4.41425 97.277875,4.41425 Z M85.531,12.9964375 L85.531,7.0033125 C85.531,5.1095625 84.404125,4.41425 83.1575625,4.41425 C81.982875,4.41425 80.8085,5.0376875 80.8085,6.97925 L80.8085,12.9726875 C80.8085,14.866125 81.9113125,15.5376875 83.1575625,15.5376875 C84.2844375,15.5376875 85.531,14.9383125 85.531,12.9964375 Z M77.476,12.8764375 L77.476,7.1233125 C77.476,3.671125 79.801625,1.249875 83.1575625,1.249875 C86.48975,1.249875 88.839125,3.671125 88.839125,7.1233125 L88.839125,12.8764375 C88.839125,16.3045625 86.48975,18.7020625 83.1575625,18.7020625 C79.801625,18.7020625 77.476,16.3045625 77.476,12.8764375 Z M255.931938,6.212375 C255.931938,3.119875 258.137563,1.249875 261.493812,1.249875 C264.753812,1.249875 267.006937,3.4314375 267.006937,6.907375 L263.74725,6.907375 C263.74725,5.1095625 262.860062,4.2705 261.446,4.2705 C260.031312,4.2705 259.240062,4.94175 259.240062,6.212375 C259.240062,9.5683125 267.223187,7.578625 267.223187,13.6195625 C267.223187,16.8320625 264.921937,18.749875 261.493812,18.749875 C258.065375,18.749875 255.716312,16.5201875 255.716312,12.9005 L259.02475,12.9005 C259.02475,14.866125 260.031312,15.6814375 261.493812,15.6814375 C262.883812,15.6814375 263.91475,15.03425 263.91475,13.6439375 C263.91475,10.4314375 255.931938,12.2055 255.931938,6.212375 Z M247.469437,4.749875 L247.469437,8.5858125 L252.048188,8.5858125 L252.048188,11.4620625 L247.469437,11.4620625 L247.469437,15.298 L253.654125,15.298 L253.654125,18.462375 L244.161,18.462375 L244.161,1.56175 L253.654125,1.56175 L253.654125,4.749875 L247.469437,4.749875 Z M236.968812,18.462375 L236.968812,1.56175 L240.27725,1.56175 L240.27725,18.462375 L236.968812,18.462375 Z M213.235687,4.749875 L213.235687,8.5858125 L217.814437,8.5858125 L217.814437,11.4620625 L213.235687,11.4620625 L213.235687,15.298 L219.420375,15.298 L219.420375,18.462375 L209.92725,18.462375 L209.92725,1.56175 L219.420375,1.56175 L219.420375,4.749875 L213.235687,4.749875 Z M195.303812,1.56175 L198.684125,1.56175 L201.58475,13.499875 L204.485375,1.56175 L207.865687,1.56175 L203.310687,18.462375 L199.83475,18.462375 C198.300375,12.828625 196.814125,7.194875 195.303812,1.56175 Z M189.574125,18.462375 L189.574125,1.56175 L192.882563,1.56175 L192.882563,18.462375 L189.574125,18.462375 Z M177.971,18.462375 L177.971,1.56175 L181.279437,1.56175 L181.279437,15.298 L186.889125,15.298 L186.889125,18.462375 L177.971,18.462375 Z M168.621625,4.749875 L168.621625,8.5858125 L173.200688,8.5858125 L173.200688,11.4620625 L168.621625,11.4620625 L168.621625,15.298 L174.806625,15.298 L174.806625,18.462375 L165.313813,18.462375 L165.313813,1.56175 L174.806625,1.56175 L174.806625,4.749875 L168.621625,4.749875 Z M153.998188,15.3220625 L155.867875,15.3220625 C157.450063,15.3220625 158.6485,14.698625 158.6485,11.3905 L158.6485,8.106125 C158.6485,6.28425 158.169125,4.7258125 155.867875,4.7258125 L153.998188,4.7258125 L153.998188,15.3220625 Z M150.690063,1.56175 L156.251312,1.56175 C159.607875,1.56175 161.933188,3.6233125 161.933188,7.74675 L161.933188,12.2055 C161.933188,16.2805 159.607875,18.462375 156.251312,18.462375 L150.690063,18.462375 L150.690063,1.56175 Z M32.1905,8.416 L32.1905,11.584125 L34.8889375,13.1581875 L37.587375,11.584125 L37.587375,8.416 L34.8889375,6.8419375 L32.1905,8.416 Z M35.4489375,15.404125 C35.2758125,15.505375 35.082375,15.5556875 34.8889375,15.5556875 C34.6955,15.5556875 34.50175,15.505375 34.3289375,15.404125 L30.51925,13.1819375 C30.1783125,12.982875 29.9683125,12.61725 29.9683125,12.22225 L29.9683125,7.777875 C29.9683125,7.3825625 30.1783125,7.01725 30.51925,6.817875 L34.3289375,4.5956875 C34.674875,4.3938125 35.1026875,4.3938125 35.4489375,4.5956875 L39.2583125,6.817875 C39.5995625,7.01725 39.8095625,7.3825625 39.8095625,7.777875 L39.8095625,12.22225 C39.8095625,12.61725 39.5995625,12.982875 39.2583125,13.1819375 L35.4489375,15.404125 Z M43.5326875,15.5556875 C41.53425,18.3500625 38.3476875,20.0000625 34.8889375,20.0000625 C31.4301875,20.0000625 28.2433125,18.3500625 26.2451875,15.5556875 L20.9208125,15.5556875 C20.3070625,15.5556875 19.8095625,15.0581875 19.8095625,14.4444375 C19.8095625,13.8306875 20.3070625,13.3331875 20.9208125,13.3331875 L27.4483125,13.3331875 L27.7755,13.851 C29.32925,16.30975 31.988625,17.777875 34.8889375,17.777875 C37.78925,17.777875 40.448625,16.30975 42.0020625,13.851 L42.32925,13.3331875 L48.8570625,13.3331875 C49.4708125,13.3331875 49.9683125,13.8306875 49.9683125,14.4444375 C49.9683125,15.0581875 49.4708125,15.5556875 48.8570625,15.5556875 L43.5326875,15.5556875 Z M53.7776875,5.5556875 C53.7776875,6.1694375 53.2801875,6.666625 52.6664375,6.666625 L42.32925,6.666625 L42.0020625,6.149125 C40.448625,3.6900625 37.78925,2.22225 34.8889375,2.22225 C31.988625,2.22225 29.32925,3.6900625 27.7755,6.149125 L27.4483125,6.666625 L17.111125,6.666625 C16.497375,6.666625 15.999875,6.1694375 15.999875,5.5556875 C15.999875,4.9419375 16.497375,4.4444375 17.111125,4.4444375 L26.2451875,4.4444375 C28.2433125,1.6500625 31.4301875,6.25e-05 34.8889375,6.25e-05 C38.3476875,6.25e-05 41.53425,1.6500625 43.5326875,4.4444375 L52.6664375,4.4444375 C53.2801875,4.4444375 53.7776875,4.9419375 53.7776875,5.5556875 Z M27.111125,10.0000625 C27.111125,10.6138125 26.613625,11.1113125 25.999875,11.1113125 L19.0158125,11.1113125 C18.4020625,11.1113125 17.904875,10.6138125 17.904875,10.0000625 C17.904875,9.3863125 18.4020625,8.8888125 19.0158125,8.8888125 L25.999875,8.8888125 C26.613625,8.8888125 27.111125,9.3863125 27.111125,10.0000625 Z M50.7620625,11.1113125 L43.7776875,11.1113125 C43.1639375,11.1113125 42.6664375,10.6138125 42.6664375,10.0000625 C42.6664375,9.3863125 43.1639375,8.8888125 43.7776875,8.8888125 L50.7620625,8.8888125 C51.3758125,8.8888125 51.873,9.3863125 51.873,10.0000625 C51.873,10.6138125 51.3758125,11.1113125 50.7620625,11.1113125 Z" transform="translate(-16)"/>
</svg>
